<?xml version="1.0" encoding="utf-8"?>
<!-- Generator: Adobe Illustrator 16.0.0, SVG Export Plug-In . SVG Version: 6.00 Build 0)  -->
<!DOCTYPE svg PUBLIC "-//W3C//DTD SVG 1.1//EN" "http://www.w3.org/Graphics/SVG/1.1/DTD/svg11.dtd">
<svg version="1.1" id="Capa_1" xmlns="http://www.w3.org/2000/svg" xmlns:xlink="http://www.w3.org/1999/xlink" x="0px" y="0px"
	 width="25px" height="25px" viewBox="36.375 36.375 25 25" enable-background="new 36.375 36.375 25 25" xml:space="preserve">
<g>
	<g>
		<ellipse fill="#0A456B" cx="48.893" cy="48.835" rx="3.699" ry="3.585"/>
		<path fill="#0A456B" d="M54.619,49.035c0,3.064-2.564,5.548-5.727,5.548s-5.726-2.483-5.726-5.548c0-0.549,0.083-1.08,0.236-1.581
			h-1.692v7.782c0,0.403,0.329,0.732,0.732,0.732h12.829c0.403,0,0.732-0.329,0.732-0.732v-7.782h-1.621
			C54.535,47.956,54.619,48.486,54.619,49.035z"/>
		<path fill="#0A456B" d="M53.084,45.354h2.082c0.456,0,0.829-0.373,0.829-0.829V42.54c0-0.457-0.373-0.829-0.829-0.829h-2.082
			c-0.457,0-0.829,0.373-0.829,0.829v1.985C52.254,44.981,52.627,45.354,53.084,45.354z"/>
		<path fill="#0A456B" d="M48.875,36.375c-6.904,0-12.5,5.596-12.5,12.5c0,6.903,5.596,12.5,12.5,12.5c6.903,0,12.5-5.597,12.5-12.5
			C61.375,41.971,55.778,36.375,48.875,36.375z M55.722,58.086H42.029c-1.301,0-2.365-0.963-2.365-2.364V42.028
			c0-1.402,1.063-2.364,2.365-2.364h13.693c1.301,0,2.364,0.962,2.364,2.364v13.693C58.086,57.123,57.022,58.086,55.722,58.086z"/>
	</g>
</g>
</svg>
