<?xml version="1.0" encoding="utf-8"?>
<!-- Generator: Adobe Illustrator 16.0.0, SVG Export Plug-In . SVG Version: 6.00 Build 0)  -->
<!DOCTYPE svg PUBLIC "-//W3C//DTD SVG 1.1//EN" "http://www.w3.org/Graphics/SVG/1.1/DTD/svg11.dtd">
<svg version="1.1" id="Layer_1" xmlns="http://www.w3.org/2000/svg" xmlns:xlink="http://www.w3.org/1999/xlink" x="0px" y="0px"
	 width="350px" height="67.301px" viewBox="0 0 350 67.301" enable-background="new 0 0 350 67.301" xml:space="preserve">
<g>
	<g>
		<path fill="#FFFFFF" d="M25.001,5.271h22.627v6.277H31.91v8.491h12.604v6.181H31.91v8.199h16.765v6.253H25.001V5.271z"/>
	</g>
	<g>
		<path fill="#FFFFFF" d="M103.005,26.024V5.271h7.033v20.292c0,5.085,2.603,8.954,7.25,8.954c4.283,0,7.373-3.31,7.373-8.954V5.271
			h7.008v20.753c0,9.196-5.279,15.062-14.379,15.062C108.772,41.085,103.005,35.684,103.005,26.024z"/>
		<path fill="#FFFFFF" d="M144.23,5.271h7.057v35.402h-7.057V5.271z"/>
		<path fill="#FFFFFF" d="M166.187,5.271h23.48v6.278h-16.572v9.464h13.821v6.253h-13.821v13.407h-6.908V5.271L166.187,5.271z"/>
		<path fill="#FFFFFF" d="M217.455,33.593h-13.577l-2.408,7.08h-7.324L207.26,5.271h6.767l13.162,35.402h-7.324L217.455,33.593z
			 M215.411,27.606l-4.744-13.893h-0.049l-4.72,13.893H215.411z"/>
		<path fill="#FFFFFF" d="M237.123,5.271h7.056v35.402h-7.056V5.271z"/>
		<path fill="#FFFFFF" d="M276.079,40.672l-7.933-12.116h-4.061v12.116h-6.912V5.271h13.381c8.541,0,12.338,5.012,12.338,11.8
			c0,5.643-2.75,9.149-7.253,10.658v0.097l8.737,12.847H276.079z M264.086,22.375H269c4.329,0,6.639-2.167,6.639-5.45
			c0-3.286-2.262-5.427-6.35-5.427h-5.207L264.086,22.375z"/>
		<path fill="#FFFFFF" d="M315.258,33.593h-13.576l-2.41,7.08h-7.321l13.113-35.402h6.764l13.163,35.402h-7.326L315.258,33.593z
			 M313.214,27.606l-4.745-13.893h-0.047L303.7,27.606H313.214z"/>
	</g>
	<g>
		<g>
			<path fill="#459A42" d="M85.834,38.946c2.64-1.718,4.875-3.989,6.563-6.665l-14.849-8.249L85.834,38.946z"/>
		</g>
		<path fill="#FFFFFF" d="M79.881,34.26c-1.492,0.783-3.188,1.226-5.023,1.226c-6.583,0-11.13-5.327-11.13-11.984
			c0-6.634,4.547-11.934,11.13-11.934c6.307,0,11.056,5.05,11.056,11.935c0,0.604-0.051,1.188-0.122,1.763l6.903,3.835
			c0.471-1.739,0.731-3.608,0.731-5.599c0-11.157-7.866-18.695-18.592-18.695c-11.055,0-18.643,7.864-18.643,18.694
			c0,10.854,7.588,18.717,18.643,18.717c3.104,0,5.956-0.649,8.46-1.817L79.881,34.26z"/>
	</g>
	<g>
		<path fill="#FFFFFF" d="M25.984,54.599h0.946v6.864h3.829v0.871h-4.774V54.599z"/>
		<path fill="#FFFFFF" d="M38.674,54.599h0.951v7.735h-0.951V54.599z"/>
		<path fill="#FFFFFF" d="M55.206,62.494l-1.026-0.929c-0.664,0.535-1.521,0.839-2.472,0.839c-2.314,0-3.881-1.708-3.881-3.94
			c0-2.228,1.567-3.934,3.881-3.934c2.18,0,3.854,1.58,3.854,3.934c0,0.979-0.286,1.824-0.787,2.483l0.974,0.867L55.206,62.494z
			 M53.462,60.911l-0.893-0.809l0.542-0.648l0.93,0.836c0.34-0.501,0.538-1.127,0.538-1.824c0-1.727-1.207-3.029-2.871-3.029
			c-1.675,0-2.897,1.303-2.897,3.029c0,1.733,1.222,3.036,2.897,3.036C52.383,61.5,52.984,61.283,53.462,60.911z"/>
		<path fill="#FFFFFF" d="M63.783,59.188v-4.589h0.946v4.519c0,1.43,0.792,2.382,2.042,2.382c1.207,0,2.056-0.883,2.056-2.382
			v-4.519h0.946v4.589c0,1.987-1.164,3.216-3.003,3.216C65.001,62.404,63.783,61.228,63.783,59.188z"/>
		<path fill="#FFFFFF" d="M78.204,54.599h0.952v7.735h-0.952V54.599z"/>
		<path fill="#FFFFFF" d="M87.697,54.599h2.312c2.45,0,4.013,1.595,4.013,3.882c0,2.28-1.515,3.854-3.981,3.854h-2.345V54.599z
			 M89.982,61.473c1.856,0,3.063-1.255,3.063-2.992c0-1.771-1.218-3.02-3.02-3.02h-1.382v6.012H89.982L89.982,61.473z"/>
		<path fill="#FFFFFF" d="M102.217,54.599h0.951v7.735h-0.951V54.599z"/>
		<path fill="#FFFFFF" d="M113.379,55.472h-2.312v-0.873h5.598v0.873h-2.339v6.862h-0.946V55.472z"/>
		<path fill="#FFFFFF" d="M130.106,54.599l-2.644,4.28v3.455h-0.946v-3.455l-2.621-4.28h1.089l2,3.328h0.021l1.999-3.328H130.106
			L130.106,54.599z"/>
		<path fill="#FFFFFF" d="M147.31,54.599h4.732v0.873h-3.78v2.589h3.105v0.871h-3.105v2.531h4.008v0.871h-4.96V54.599L147.31,54.599
			z"/>
		<path fill="#FFFFFF" d="M166.384,54.599l-2.913,7.735h-0.855l-2.914-7.735h1.026l2.302,6.37h0.015l2.319-6.37H166.384
			L166.384,54.599z"/>
		<path fill="#FFFFFF" d="M174.193,54.599h4.732v0.873h-3.78v2.589h3.105v0.871h-3.105v2.531h4.008v0.871h-4.96V54.599
			L174.193,54.599z"/>
		<path fill="#FFFFFF" d="M193.479,54.599v7.735h-0.961l-4.332-6.099h-0.023v6.099h-0.945v-7.735h0.937l4.359,6.161h0.021v-6.161
			H193.479z"/>
		<path fill="#FFFFFF" d="M203.631,55.472h-2.312v-0.873h5.598v0.873h-2.341v6.862h-0.945V55.472z"/>
		<path fill="#FFFFFF" d="M224.275,54.599h2.707c1.808,0,2.558,1.026,2.558,2.397c0,1.637-1.106,2.387-2.724,2.387h-1.595v2.951
			h-0.946V54.599L224.275,54.599z M226.733,58.513c1.29,0,1.823-0.655,1.823-1.537c0-0.979-0.637-1.504-1.675-1.504h-1.66v3.041
			H226.733z"/>
		<path fill="#FFFFFF" d="M237.52,54.599h0.945v6.864h3.828v0.871h-4.773V54.599L237.52,54.599z"/>
		<path fill="#FFFFFF" d="M254.674,60.454h-3.451l-0.685,1.881h-0.994l2.923-7.735h0.951l2.946,7.735h-0.999L254.674,60.454z
			 M254.372,59.623l-1.416-3.864h-0.02l-1.409,3.864H254.372z"/>
		<path fill="#FFFFFF" d="M270.42,54.599v7.735h-0.963l-4.334-6.099h-0.021v6.099h-0.945v-7.735h0.935l4.359,6.161h0.021v-6.161
			H270.42z"/>
		<path fill="#FFFFFF" d="M285.162,54.599v7.735H284.2l-4.331-6.099h-0.021v6.099H278.9v-7.735h0.937l4.359,6.161h0.021v-6.161
			H285.162z"/>
		<path fill="#FFFFFF" d="M293.646,54.599h4.732v0.873h-3.781v2.589h3.106v0.871h-3.106v2.531h4.009v0.871h-4.96V54.599z"/>
		<path fill="#FFFFFF" d="M311.035,62.334l-1.973-2.951h-1.447v2.951h-0.945v-7.735h2.743c1.779,0,2.558,1.026,2.558,2.397
			c0,1.318-0.725,2.063-1.846,2.303l-0.005,0.011l2.058,3.024H311.035L311.035,62.334z M307.615,58.513h1.543
			c1.281,0,1.829-0.655,1.829-1.537c0-0.979-0.638-1.504-1.697-1.504h-1.675V58.513L307.615,58.513z"/>
		<path fill="#FFFFFF" d="M319.678,61.207l0.601-0.727c0.563,0.691,1.393,1.025,2.147,1.025c0.946,0,1.585-0.441,1.585-1.18
			c0-0.874-0.702-1.106-1.731-1.495c-1.145-0.425-2.309-0.919-2.309-2.255c0-1.158,1.037-2.04,2.36-2.047
			c0.856-0.005,1.712,0.319,2.446,0.905l-0.569,0.733c-0.617-0.506-1.303-0.757-1.882-0.757c-0.719,0-1.365,0.394-1.371,1.118
			c-0.006,0.745,0.685,1.005,1.652,1.383c1.297,0.504,2.394,0.86,2.394,2.307c0,1.425-1.25,2.186-2.584,2.186
			C321.447,62.404,320.447,62.032,319.678,61.207z"/>
	</g>
</g>
</svg>
