<?xml version="1.0" encoding="utf-8"?>
<!-- Generator: Adobe Illustrator 16.0.0, SVG Export Plug-In . SVG Version: 6.00 Build 0)  -->
<!DOCTYPE svg PUBLIC "-//W3C//DTD SVG 1.1//EN" "http://www.w3.org/Graphics/SVG/1.1/DTD/svg11.dtd">
<svg version="1.1" id="Capa_1" xmlns="http://www.w3.org/2000/svg" xmlns:xlink="http://www.w3.org/1999/xlink" x="0px" y="0px"
	 width="25px" height="25px" viewBox="36.375 36.375 25 25" enable-background="new 36.375 36.375 25 25" xml:space="preserve">
<g>
	<path fill="#0A456B" d="M48.875,36.375c-6.903,0-12.5,5.597-12.5,12.5c0,6.904,5.597,12.5,12.5,12.5c6.904,0,12.5-5.596,12.5-12.5
		C61.375,41.972,55.779,36.375,48.875,36.375z M53.645,42.741l-1.729,0c-1.356,0-1.618,0.645-1.618,1.59v2.084h3.233l-0.002,3.265
		h-3.231v8.379h-3.372V49.68h-2.818v-3.265h2.818v-2.407c0-2.794,1.708-4.316,4.2-4.316l2.52,0.004V42.741L53.645,42.741z"/>
</g>
</svg>
