<?xml version="1.0" encoding="utf-8"?>
<!-- Generator: Adobe Illustrator 16.0.0, SVG Export Plug-In . SVG Version: 6.00 Build 0)  -->
<!DOCTYPE svg PUBLIC "-//W3C//DTD SVG 1.1//EN" "http://www.w3.org/Graphics/SVG/1.1/DTD/svg11.dtd">
<svg version="1.1" id="Capa_1" xmlns="http://www.w3.org/2000/svg" xmlns:xlink="http://www.w3.org/1999/xlink" x="0px" y="0px"
	 width="25px" height="25px" viewBox="36.375 36.375 25 25" enable-background="new 36.375 36.375 25 25" xml:space="preserve">
<g>
	<path fill="#0A456B" d="M48.875,36.375c-6.904,0-12.5,5.596-12.5,12.5c0,6.903,5.596,12.5,12.5,12.5c6.903,0,12.5-5.597,12.5-12.5
		C61.375,41.971,55.778,36.375,48.875,36.375z M56.434,45.542c0.006,0.147,0.009,0.295,0.009,0.444
		c0,5.34-4.062,10.862-10.862,10.862c-2.079,0-4.102-0.593-5.853-1.715c-0.037-0.023-0.051-0.068-0.037-0.109
		c0.015-0.041,0.056-0.065,0.098-0.061c0.293,0.035,0.594,0.052,0.892,0.052c1.617,0,3.148-0.5,4.443-1.448
		c-1.552-0.131-2.886-1.182-3.366-2.68c-0.01-0.031-0.003-0.065,0.019-0.09c0.022-0.024,0.055-0.035,0.087-0.029
		c0.43,0.081,0.868,0.087,1.289,0.019c-1.601-0.497-2.726-1.997-2.726-3.704l0-0.05c0.001-0.032,0.019-0.062,0.047-0.078
		c0.028-0.017,0.062-0.017,0.091-0.001c0.417,0.232,0.879,0.381,1.353,0.438c-0.92-0.733-1.46-1.845-1.46-3.034
		c0-0.686,0.181-1.36,0.525-1.95c0.015-0.026,0.042-0.043,0.072-0.045c0.031-0.003,0.06,0.01,0.079,0.034
		c1.883,2.31,4.652,3.731,7.614,3.915c-0.049-0.249-0.075-0.505-0.075-0.764c0-2.138,1.74-3.877,3.877-3.877
		c1.052,0,2.067,0.432,2.796,1.187c0.82-0.167,1.603-0.469,2.324-0.897c0.033-0.02,0.074-0.017,0.105,0.007
		c0.029,0.024,0.042,0.064,0.03,0.101c-0.245,0.766-0.723,1.434-1.363,1.916c0.604-0.105,1.189-0.283,1.747-0.53
		c0.037-0.017,0.081-0.006,0.108,0.025c0.026,0.032,0.028,0.077,0.006,0.111C57.797,44.348,57.168,45.005,56.434,45.542z"/>
</g>
</svg>
